<?xml version="1.0" encoding="UTF-8" standalone="no"?>
<!DOCTYPE svg PUBLIC "-//W3C//DTD SVG 1.1//EN" "http://www.w3.org/Graphics/SVG/1.1/DTD/svg11.dtd">
<svg width="100%" height="100%" viewBox="0 0 90 76" version="1.1" xmlns="http://www.w3.org/2000/svg" xmlns:xlink="http://www.w3.org/1999/xlink" xml:space="preserve" xmlns:serif="http://www.serif.com/" style="fill-rule:evenodd;clip-rule:evenodd;stroke-linejoin:round;stroke-miterlimit:2;">
    <g transform="matrix(1,0,0,1,-110,-252)">
        <g id="BM-Stv.-Wf" serif:id="BM Stv. Wf" transform="matrix(0.762712,0,0,0.752475,110,592.871)">
            <rect x="0" y="-453" width="118" height="101" style="fill:none;"/>
            <clipPath id="_clip1">
                <rect x="0" y="-453" width="118" height="101"/>
            </clipPath>
            <g clip-path="url(#_clip1)">
                <g id="Elemente.afdesign" transform="matrix(1.31111,0,0,1.32895,59,-377.25)">
                    <g transform="matrix(1,0,0,1,-155,-19)">
                        <g id="_1BG-GR" serif:id="1BG-GR" transform="matrix(1,0,0,1,110,0)">
                            <rect x="0" y="0" width="90" height="38" style="fill:none;"/>
                            <clipPath id="_clip2">
                                <rect x="0" y="0" width="90" height="38"/>
                            </clipPath>
                            <g clip-path="url(#_clip2)">
                                <g transform="matrix(1.125,0,0,1.26667,-37.125,-69.6667)">
                                    <path d="M113,61.316C113,57.83 109.814,55 105.889,55L40.111,55C36.186,55 33,57.83 33,61.316L33,78.684C33,82.17 36.186,85 40.111,85L105.889,85C109.814,85 113,82.17 113,78.684L113,61.316Z" style="fill:rgb(25,30,40);"/>
                                </g>
                            </g>
                        </g>
                    </g>
                </g>
                <g id="Elemente.afdesign1" serif:id="Elemente.afdesign" transform="matrix(1.31111,0,0,1.32895,59,-434.395)">
                    <g transform="matrix(1,0,0,1,-45,-14)">
                        <g id="ST-BG-GR" transform="matrix(1,0,0,0.736842,0,0)">
                            <rect x="0" y="0" width="90" height="38" style="fill:none;"/>
                            <clipPath id="_clip3">
                                <rect x="0" y="0" width="90" height="38"/>
                            </clipPath>
                            <g clip-path="url(#_clip3)">
                                <g transform="matrix(1.125,0,0,1.26667,-37.125,-69.6667)">
                                    <path d="M113,63.571C113,58.841 109.814,55 105.889,55L40.111,55C36.186,55 33,58.841 33,63.571L33,76.429C33,81.159 36.186,85 40.111,85L105.889,85C109.814,85 113,81.159 113,76.429L113,63.571Z" style="fill:rgb(25,30,40);"/>
                                </g>
                            </g>
                        </g>
                    </g>
                </g>
                <g id="Elemente.afdesign2" serif:id="Elemente.afdesign" transform="matrix(1.31111,0,0,1.32895,59,-434.395)">
                    <g transform="matrix(1,0,0,1,-1225,-502)">
                        <g id="_1ST-S" serif:id="1ST-S" transform="matrix(1,0,0,0.736842,1180,488)">
                            <rect x="0" y="0" width="90" height="38" style="fill:none;"/>
                            <g transform="matrix(1,0,0,1.35714,-30,-24.4286)">
                                <g id="Stern-Silber.afdesign" serif:id="Stern Silber.afdesign" transform="matrix(0.2,0,0,0.2,75,32)">
                                    <g transform="matrix(1,0,0,1,-50,-50)">
                                        <clipPath id="_clip4">
                                            <rect x="0" y="0" width="100" height="100"/>
                                        </clipPath>
                                        <g clip-path="url(#_clip4)">
                                            <g id="path5563" transform="matrix(2.33891,0,0,2.33891,-84.1155,-56.6067)">
                                                <path d="M58.079,51.292C57.862,51.32 57.641,51.336 57.418,51.339L57.264,51.339C57.04,51.336 56.82,51.32 56.603,51.292C56.014,55.308 55.452,59.22 55.452,61.763C55.452,64.492 56.355,66.307 57.341,66.957C58.327,66.307 59.229,64.492 59.229,61.763C59.229,59.22 58.668,55.308 58.079,51.292ZM54.863,50.774C55.311,50.99 55.79,51.149 56.292,51.243C55.767,54.307 55.239,57.211 54.633,59.077C53.921,61.269 52.722,62.491 51.76,62.757C51.138,61.977 50.886,60.283 51.598,58.09C52.205,56.224 53.485,53.563 54.863,50.774ZM59.819,50.774C59.371,50.99 58.891,51.149 58.39,51.243C58.915,54.307 59.442,57.211 60.049,59.077L60.049,59.077C60.761,61.269 61.96,62.491 62.922,62.757C63.544,61.977 63.796,60.283 63.084,58.09C62.477,56.224 61.197,53.563 59.819,50.774ZM53.376,49.745C53.743,50.094 54.155,50.396 54.603,50.641C53.433,52.856 52.31,54.906 51.371,56.198C50.173,57.848 48.829,58.549 47.947,58.509C47.637,57.683 47.888,56.188 49.087,54.538C50.026,53.245 51.629,51.543 53.376,49.745ZM61.306,49.745C60.939,50.094 60.526,50.396 60.079,50.641C61.249,52.856 62.372,54.906 63.31,56.198C64.509,57.848 65.853,58.549 66.735,58.509C67.045,57.683 66.794,56.188 65.595,54.538C64.656,53.245 63.052,51.543 61.306,49.745ZM52.279,48.318C52.523,48.766 52.826,49.178 53.175,49.545C51.378,51.291 49.675,52.894 48.382,53.833C46.732,55.032 45.238,55.284 44.411,54.973C44.371,54.092 45.072,52.748 46.723,51.549C48.015,50.61 50.064,49.487 52.279,48.318ZM62.403,48.318C62.158,48.766 61.856,49.178 61.506,49.545C63.304,51.291 65.007,52.894 66.299,53.833L66.299,53.833C67.95,55.032 69.444,55.284 70.27,54.973C70.31,54.092 69.609,52.748 67.959,51.549C66.667,50.61 64.618,49.487 62.403,48.318ZM51.675,46.629C51.769,47.131 51.929,47.611 52.145,48.059C49.357,49.435 46.697,50.716 44.83,51.322C42.638,52.035 40.944,51.783 40.164,51.161C40.429,50.199 41.652,49 43.844,48.287C45.709,47.681 48.612,47.153 51.675,46.629ZM63.007,46.629C62.913,47.131 62.753,47.61 62.537,48.059C65.325,49.435 67.985,50.716 69.852,51.322L69.852,51.322C72.044,52.035 73.738,51.783 74.518,51.161C74.253,50.199 73.03,49 70.838,48.287C68.972,47.681 66.07,47.153 63.007,46.629ZM57.337,40.077L57.344,40.077C60.363,40.077 62.846,42.561 62.846,45.58C62.846,48.598 60.363,51.082 57.344,51.082L57.337,51.082C54.319,51.082 51.835,48.598 51.835,45.58C51.835,42.561 54.319,40.077 57.337,40.077ZM61.129,45.582L61.129,45.577C61.129,43.499 59.419,41.788 57.341,41.788C55.263,41.788 53.553,43.499 53.553,45.577L53.553,45.582C53.553,47.66 55.263,49.371 57.341,49.371C59.419,49.371 61.129,47.66 61.129,45.582ZM60.872,45.577L60.872,45.582C60.872,47.519 59.278,49.113 57.341,49.113C55.404,49.113 53.81,47.519 53.81,45.582L53.81,45.577C53.81,43.64 55.404,42.046 57.341,42.046C59.278,42.046 60.872,43.64 60.872,45.577L60.872,45.577ZM51.626,46.318C51.594,46.076 51.578,45.829 51.578,45.58C51.578,45.33 51.594,45.083 51.626,44.841C47.611,44.252 43.7,43.691 41.157,43.691C38.429,43.691 36.614,44.594 35.963,45.58C36.614,46.565 38.429,47.468 41.157,47.468C43.7,47.468 47.611,46.907 51.626,46.318ZM63.056,44.841C67.071,44.252 70.982,43.691 73.525,43.691C76.253,43.691 78.068,44.594 78.718,45.58C78.068,46.565 76.253,47.468 73.525,47.468C70.982,47.468 67.071,46.907 63.056,46.318C63.088,46.076 63.104,45.829 63.104,45.58C63.104,45.33 63.088,45.083 63.056,44.841ZM62.537,43.101C62.753,43.549 62.913,44.028 63.007,44.53C66.07,44.006 68.972,43.478 70.838,42.872C73.03,42.159 74.253,40.96 74.518,39.998C73.738,39.376 72.044,39.125 69.852,39.837C67.985,40.443 65.325,41.724 62.537,43.101ZM51.675,44.53C48.612,44.006 45.709,43.478 43.844,42.872C41.652,42.159 40.429,40.96 40.164,39.998C40.944,39.376 42.638,39.125 44.83,39.837C46.697,40.443 49.357,41.724 52.145,43.1C51.929,43.549 51.769,44.028 51.675,44.53ZM61.506,41.614C61.856,41.981 62.158,42.394 62.403,42.841C64.618,41.672 66.667,40.549 67.959,39.61C69.609,38.411 70.31,37.068 70.27,36.186C69.444,35.875 67.95,36.127 66.299,37.326C65.007,38.265 63.304,39.868 61.506,41.614ZM52.279,42.841C50.064,41.672 48.014,40.549 46.723,39.61C45.072,38.411 44.371,37.068 44.411,36.186C45.238,35.875 46.732,36.127 48.382,37.326C49.675,38.265 51.378,39.868 53.176,41.614C52.826,41.981 52.523,42.394 52.279,42.841ZM60.079,40.518C60.526,40.763 60.939,41.065 61.306,41.414C63.052,39.616 64.656,37.914 65.595,36.621C66.794,34.971 67.045,33.476 66.735,32.65C65.853,32.61 64.509,33.311 63.31,34.961C62.372,36.253 61.249,38.303 60.079,40.518ZM53.376,41.414C51.629,39.616 50.026,37.914 49.087,36.621C47.888,34.971 47.637,33.476 47.947,32.65C48.829,32.61 50.172,33.311 51.371,34.961C52.31,36.253 53.433,38.303 54.603,40.518C54.155,40.763 53.743,41.065 53.376,41.414ZM58.39,39.916C58.892,40.01 59.371,40.169 59.819,40.385C61.196,37.597 62.477,34.936 63.084,33.069C63.796,30.876 63.544,29.182 62.922,28.403C61.96,28.668 60.761,29.89 60.049,32.083C59.442,33.948 58.915,36.852 58.39,39.916ZM54.863,40.385C53.486,37.597 52.205,34.936 51.598,33.069C50.886,30.876 51.138,29.182 51.76,28.403C52.722,28.668 53.921,29.89 54.633,32.083C55.239,33.948 55.767,36.852 56.292,39.916C55.791,40.01 55.311,40.169 54.863,40.385ZM56.603,39.867C56.014,35.851 55.452,31.939 55.452,29.396C55.452,26.667 56.355,24.852 57.341,24.202C58.327,24.852 59.229,26.667 59.229,29.396C59.229,31.939 58.668,35.851 58.079,39.867C57.838,39.836 57.593,39.82 57.344,39.82L57.337,39.82C57.089,39.82 56.844,39.836 56.603,39.867Z" style="fill:rgb(197,199,196);"/>
                                            </g>
                                        </g>
                                    </g>
                                    <g>
                                    </g>
                                </g>
                            </g>
                        </g>
                    </g>
                </g>
                <g id="Elemente.afdesign3" serif:id="Elemente.afdesign" transform="matrix(1.31111,0,0,1.32895,59,-409.145)">
                    <g transform="matrix(1,0,0,1,-1015,-493)">
                        <g id="SP-L" transform="matrix(1,0,0,0.15625,940,458.156)">
                            <rect x="30" y="191" width="90" height="64" style="fill:none;"/>
                        </g>
                    </g>
                </g>
                <g id="Elemente.afdesign4" serif:id="Elemente.afdesign" transform="matrix(1.31111,0,0,1.32895,59,-377.25)">
                    <g transform="matrix(1,0,0,1,-1435,-187)">
                        <g id="_1BR-S" serif:id="1BR-S" transform="matrix(1,0,0,1,1390,168)">
                            <rect x="0" y="0" width="90" height="38" style="fill:none;"/>
                            <g transform="matrix(0.975,0,0,0.866667,-26.175,-41.6667)">
                                <path d="M113,58.462C113,56.551 111.621,55 109.923,55L36.077,55C34.379,55 33,56.551 33,58.462L33,81.538C33,83.449 34.379,85 36.077,85L109.923,85C111.621,85 113,83.449 113,81.538L113,58.462ZM110.949,58.462L110.949,81.538C110.949,82.175 110.489,82.692 109.923,82.692C109.923,82.692 36.077,82.692 36.077,82.692C35.511,82.692 35.051,82.175 35.051,81.538L35.051,58.462C35.051,57.825 35.511,57.308 36.077,57.308L109.923,57.308C110.489,57.308 110.949,57.825 110.949,58.462Z" style="fill:rgb(197,199,196);"/>
                            </g>
                        </g>
                    </g>
                </g>
                <g id="Elemente.afdesign5" serif:id="Elemente.afdesign" transform="matrix(1.31111,0,0,1.32895,59,-377.25)">
                    <g transform="matrix(1,0,0,1,-795,-19)">
                        <g id="_1LN-R" serif:id="1LN-R" transform="matrix(1,0,0,1,750,0)">
                            <rect x="0" y="0" width="90" height="38" style="fill:none;"/>
                            <g transform="matrix(1.63286e-16,2.66667,-20,1.22465e-15,1115,-283.667)">
                                <rect x="112" y="52" width="3" height="3" style="fill:rgb(167,41,32);"/>
                            </g>
                        </g>
                    </g>
                </g>
            </g>
        </g>
    </g>
</svg>
