<?xml version="1.0" encoding="UTF-8" standalone="no"?>
<!DOCTYPE svg PUBLIC "-//W3C//DTD SVG 1.1//EN" "http://www.w3.org/Graphics/SVG/1.1/DTD/svg11.dtd">
<svg width="100%" height="100%" viewBox="0 0 90 64" version="1.1" xmlns="http://www.w3.org/2000/svg" xmlns:xlink="http://www.w3.org/1999/xlink" xml:space="preserve" xmlns:serif="http://www.serif.com/" style="fill-rule:evenodd;clip-rule:evenodd;stroke-linejoin:round;stroke-miterlimit:2;">
    <g transform="matrix(1,0,0,1,-300,-104)">
        <g id="HLM" transform="matrix(1,0,0,1.68421,300,104)">
            <rect x="0" y="0" width="90" height="38" style="fill:none;"/>
            <g transform="matrix(1,0,0,0.59375,-30,-39.1875)">
                <g transform="matrix(1.125,0,0,2.13333,-7.125,-51.3333)">
                    <path d="M113,58.75C113,56.68 109.814,55 105.889,55L40.111,55C36.186,55 33,56.68 33,58.75L33,81.25C33,83.32 36.186,85 40.111,85L105.889,85C109.814,85 113,83.32 113,81.25L113,58.75Z" style="fill:rgb(25,30,40);"/>
                </g>
                <g transform="matrix(0.975,0,0,1.73333,3.825,-23.3333)">
                    <path d="M113,56.731C113,55.776 111.621,55 109.923,55L36.077,55C34.379,55 33,55.776 33,56.731L33,83.269C33,84.224 34.379,85 36.077,85L109.923,85C111.621,85 113,84.224 113,83.269L113,56.731ZM110.949,56.731L110.949,83.269C110.949,83.588 110.489,83.846 109.923,83.846L36.077,83.846C35.511,83.846 35.051,83.588 35.051,83.269L35.051,56.731C35.051,56.412 35.511,56.154 36.077,56.154L109.923,56.154C110.489,56.154 110.949,56.412 110.949,56.731Z" style="fill:rgb(167,41,32);"/>
                </g>
                <g transform="matrix(1,0,0,1,-270,-38)">
                    <path d="M318,162L318,160L314,160L314,162L318,162ZM326,162L326,160L322,160L322,162L326,162ZM334,162L334,160L330,160L330,162L334,162ZM342,162L342,160L338,160L338,162L342,162ZM350,162L350,160L346,160L346,162L350,162ZM358,162L358,160L354,160L354,162L358,162ZM366,162L366,160L362,160L362,162L366,162ZM374,162L374,160L370,160L370,162L374,162ZM382,161.829L382,160L378,160L378,162L381,162C381.351,162 381.687,161.94 382,161.829ZM306.171,160C306.583,161.165 307.695,162 309,162L310,162L310,160L306.171,160ZM384,156L382,156L382,160L383.829,160C383.94,159.687 384,159.351 384,159L384,156ZM306,154L306,158L308,158L308,154L306,154ZM384,148L382,148L382,152L384,152L384,148ZM306,146L306,150L308,150L308,146L306,146ZM384,140L382,140L382,144L384,144L384,140ZM306,138L306,142L308,142L308,138L306,138ZM384,132L382,132L382,136L384,136L384,132ZM306,130L306,134L308,134L308,130L306,130ZM384,124L382,124L382,128L384,128L384,124ZM306,122L306,126L308,126L308,122L306,122ZM384,116L382,116L382,120L384,120L384,116ZM306,114L306,118L308,118L308,114L306,114ZM366,110L362,110L362,112L366,112L366,110ZM358,110L354,110L354,112L358,112L358,110ZM350,110L346,110L346,112L350,112L350,110ZM342,110L338,110L338,112L342,112L342,110ZM334,110L330,110L330,112L334,112L334,110ZM318,110L314,110L314,112L318,112L318,110ZM310,112L310,110L309,110C307.695,110 306.583,110.835 306.171,112L310,112ZM381,110L378,110L378,112L382,112L382,110.171C381.687,110.06 381.351,110 381,110ZM374,110L370,110L370,112L374,112L374,110ZM326,110L322,110L322,112L326,112L326,110Z" style="fill:rgb(197,199,196);"/>
                </g>
                <g transform="matrix(1.63286e-16,2.66667,-20,1.22465e-15,1145,-217.667)">
                    <rect x="112" y="52" width="3" height="3" style="fill:rgb(167,41,32);"/>
                </g>
                <g transform="matrix(1.63286e-16,2.66667,-20,1.22465e-15,1145,-204.667)">
                    <rect x="112" y="52" width="3" height="3" style="fill:rgb(167,41,32);"/>
                </g>
                <g transform="matrix(1.63286e-16,2.66667,-20,1.22465e-15,1145,-191.667)">
                    <rect x="112" y="52" width="3" height="3" style="fill:rgb(167,41,32);"/>
                </g>
            </g>
        </g>
    </g>
</svg>
