<?xml version="1.0" encoding="UTF-8" standalone="no"?>
<!DOCTYPE svg PUBLIC "-//W3C//DTD SVG 1.1//EN" "http://www.w3.org/Graphics/SVG/1.1/DTD/svg11.dtd">
<svg width="100%" height="100%" viewBox="0 0 90 38" version="1.1" xmlns="http://www.w3.org/2000/svg" xmlns:xlink="http://www.w3.org/1999/xlink" xml:space="preserve" xmlns:serif="http://www.serif.com/" style="fill-rule:evenodd;clip-rule:evenodd;stroke-linejoin:round;stroke-miterlimit:2;">
    <g transform="matrix(1,0,0,1,-100,-104)">
        <g id="LM" transform="matrix(1,0,0,1,100,104)">
            <rect x="0" y="0" width="90" height="38" style="fill:none;"/>
            <g transform="matrix(1,0,0,1,-30,-66)">
                <g transform="matrix(1.125,0,0,1.26667,-7.125,-3.66667)">
                    <path d="M113,61.316C113,57.83 109.814,55 105.889,55L40.111,55C36.186,55 33,57.83 33,61.316L33,78.684C33,82.17 36.186,85 40.111,85L105.889,85C109.814,85 113,82.17 113,78.684L113,61.316Z" style="fill:rgb(25,30,40);"/>
                </g>
                <g transform="matrix(0.975,0,0,0.866667,3.825,24.3333)">
                    <path d="M113,58.462C113,56.551 111.621,55 109.923,55L36.077,55C34.379,55 33,56.551 33,58.462L33,81.538C33,83.449 34.379,85 36.077,85L109.923,85C111.621,85 113,83.449 113,81.538L113,58.462ZM110.949,58.462L110.949,81.538C110.949,82.175 110.489,82.692 109.923,82.692L36.077,82.692C35.511,82.692 35.051,82.175 35.051,81.538L35.051,58.462C35.051,57.825 35.511,57.308 36.077,57.308L109.923,57.308C110.489,57.308 110.949,57.825 110.949,58.462Z" style="fill:rgb(167,41,32);"/>
                </g>
                <g transform="matrix(1,0,0,1,-70,-38)">
                    <path d="M112,136L112,134L108,134L108,135.829C108.313,135.94 108.649,136 109,136L112,136ZM120,136L120,134L116,134L116,136L120,136ZM128,136L128,134L124,134L124,136L128,136ZM136,136L136,134L132,134L132,136L136,136ZM144,136L144,134L140,134L140,136L144,136ZM152,136L152,134L148,134L148,136L152,136ZM160,136L160,134L156,134L156,136L160,136ZM168,136L168,134L164,134L164,136L168,136ZM176,136L176,134L172,134L172,136L176,136ZM183.829,134L180,134L180,136L181,136C182.305,136 183.417,135.165 183.829,134ZM106,130L106,133C106,133.351 106.06,133.687 106.171,134L108,134L108,130L106,130ZM184,128L182,128L182,132L184,132L184,128ZM106,122L106,126L108,126L108,122L106,122ZM184,120L182,120L182,124L184,124L184,120ZM106,114L106,118L108,118L108,114L106,114ZM183.829,112L182,112L182,116L184,116L184,113C184,112.649 183.94,112.313 183.829,112ZM181,110L178,110L178,112L182,112L182,110.171C181.687,110.06 181.351,110 181,110ZM109,110L110,110L110,112L106.171,112C106.583,110.835 107.695,110 109,110ZM174,110L170,110L170,112L174,112L174,110ZM166,110L162,110L162,112L166,112L166,110ZM158,110L154,110L154,112L158,112L158,110ZM150,110L146,110L146,112L150,112L150,110ZM142,110L138,110L138,112L142,112L142,110ZM134,110L130,110L130,112L134,112L134,110ZM126,110L122,110L122,112L126,112L126,110ZM118,110L114,110L114,112L118,112L118,110Z" style="fill:rgb(197,199,196);"/>
                </g>
                <g transform="matrix(1.63286e-16,2.66667,-20,1.22465e-15,1145,-217.667)">
                    <rect x="112" y="52" width="3" height="3" style="fill:rgb(167,41,32);"/>
                </g>
            </g>
        </g>
    </g>
</svg>
