<?xml version="1.0" encoding="UTF-8" standalone="no"?>
<!DOCTYPE svg PUBLIC "-//W3C//DTD SVG 1.1//EN" "http://www.w3.org/Graphics/SVG/1.1/DTD/svg11.dtd">
<svg width="100%" height="100%" viewBox="0 0 90 99" version="1.1" xmlns="http://www.w3.org/2000/svg" xmlns:xlink="http://www.w3.org/1999/xlink" xml:space="preserve" xmlns:serif="http://www.serif.com/" style="fill-rule:evenodd;clip-rule:evenodd;stroke-linejoin:round;stroke-miterlimit:2;">
    <g transform="matrix(1,0,0,1,-200,-312)">
        <g id="OBM-Stv.-Werführer" serif:id="OBM Stv. Werführer" transform="matrix(1,0,0,2.60526,200,312)">
            <rect x="0" y="0" width="90" height="38" style="fill:none;"/>
            <clipPath id="_clip1">
                <rect x="0" y="0" width="90" height="38"/>
            </clipPath>
            <g clip-path="url(#_clip1)">
                <g transform="matrix(1,0,0,0.383838,-30,-6.90909)">
                    <g transform="matrix(1.125,0,0,1.7,-7.125,-27.5)">
                        <path d="M113,59.706C113,57.109 109.814,55 105.889,55L40.111,55C36.186,55 33,57.109 33,59.706L33,80.294C33,82.891 36.186,85 40.111,85L105.889,85C109.814,85 113,82.891 113,80.294L113,59.706Z" style="fill:rgb(25,30,40);"/>
                    </g>
                    <g transform="matrix(0.975,0,0,1.3,3.825,0.5)">
                        <path d="M113,57.308C113,56.034 111.621,55 109.923,55L36.077,55C34.379,55 33,56.034 33,57.308L33,82.692C33,83.966 34.379,85 36.077,85L109.923,85C111.621,85 113,83.966 113,82.692L113,57.308ZM110.949,57.308L110.949,82.692C110.949,83.117 110.489,83.462 109.923,83.462L36.077,83.462C35.511,83.462 35.051,83.117 35.051,82.692L35.051,57.308C35.051,56.883 35.511,56.538 36.077,56.538C36.077,56.538 109.923,56.538 109.923,56.538C110.489,56.538 110.949,56.883 110.949,57.308Z" style="fill:rgb(197,199,196);"/>
                    </g>
                    <g transform="matrix(1.63286e-16,2.66667,-20,1.22465e-15,1145,-217.667)">
                        <rect x="112" y="52" width="3" height="3" style="fill:rgb(167,41,32);"/>
                    </g>
                    <g transform="matrix(1.63286e-16,2.66667,-20,1.22465e-15,1145,-204.667)">
                        <rect x="112" y="52" width="3" height="3" style="fill:rgb(167,41,32);"/>
                    </g>
                </g>
                <g transform="matrix(1,0,0,0.383838,-30,-6.90909)">
                    <g transform="matrix(1.125,0,0,1.26667,-7.125,-51.6667)">
                        <path d="M113,61.316C113,57.83 109.814,55 105.889,55L40.111,55C36.186,55 33,57.83 33,61.316L33,78.684C33,82.17 36.186,85 40.111,85L105.889,85C109.814,85 113,82.17 113,78.684L113,61.316Z" style="fill:rgb(25,30,40);"/>
                    </g>
                    <g transform="matrix(0.27027,0,0,0.27027,61.0811,23.4865)">
                        <path d="M54.21,64.247C54.925,68.325 55.5,74.308 55.5,83C55.5,85.208 53.708,87 51.5,87C49.292,87 47.5,85.208 47.5,83C47.5,74.308 48.075,68.325 48.79,64.247C49.668,64.413 50.574,64.5 51.5,64.5C52.426,64.5 53.332,64.413 54.21,64.247ZM57.169,63.348C58.288,65.306 59.756,68.505 61.443,73.696C61.807,74.816 61.193,76.02 60.073,76.384C58.953,76.748 57.748,76.134 57.384,75.014C55.698,69.824 55.005,66.372 54.76,64.131C55.592,63.94 56.398,63.677 57.169,63.348ZM45.831,63.348C46.602,63.676 47.408,63.94 48.24,64.131C47.995,66.372 47.302,69.824 45.616,75.014C45.252,76.134 44.047,76.748 42.927,76.384C41.807,76.02 41.193,74.816 41.557,73.696C43.244,68.505 44.712,65.306 45.831,63.348ZM61.013,60.94C62.682,62.455 65.068,65.045 68.278,69.463C68.971,70.416 68.759,71.752 67.806,72.444C66.854,73.136 65.518,72.924 64.826,71.972C61.617,67.555 59.892,64.486 58.966,62.43C59.692,61.993 60.376,61.494 61.013,60.94ZM41.987,60.94C42.623,61.494 43.308,61.993 44.034,62.43C43.108,64.486 41.383,67.555 38.174,71.972C37.482,72.924 36.146,73.136 35.194,72.444C34.241,71.752 34.029,70.416 34.722,69.463C37.932,65.045 40.318,62.455 41.987,60.94ZM63.93,57.466C65.986,58.392 69.055,60.117 73.472,63.326C74.424,64.018 74.636,65.354 73.944,66.306C73.252,67.259 71.916,67.471 70.963,66.778C66.545,63.568 63.955,61.182 62.44,59.513C62.994,58.877 63.493,58.192 63.93,57.466ZM39.07,57.466C39.507,58.192 40.006,58.876 40.56,59.513C39.045,61.182 36.455,63.568 32.037,66.778C31.084,67.471 29.748,67.259 29.056,66.306C28.364,65.354 28.576,64.018 29.528,63.326C33.945,60.117 37.014,58.392 39.07,57.466ZM51.5,37.5C58.399,37.5 64,43.101 64,50C64,56.899 58.399,62.5 51.5,62.5C44.601,62.5 39,56.899 39,50C39,43.101 44.601,37.5 51.5,37.5ZM65.631,53.26C67.872,53.505 71.324,54.198 76.514,55.884C77.634,56.248 78.248,57.453 77.884,58.573C77.52,59.693 76.316,60.307 75.196,59.943C70.005,58.256 66.806,56.788 64.848,55.669C65.176,54.898 65.44,54.092 65.631,53.26ZM37.369,53.26C37.56,54.092 37.823,54.898 38.152,55.669C36.194,56.788 32.995,58.256 27.804,59.943C26.684,60.307 25.48,59.693 25.116,58.573C24.752,57.453 25.366,56.248 26.486,55.884C31.676,54.198 35.128,53.505 37.369,53.26ZM65.747,47.29C69.825,46.575 75.808,46 84.5,46C86.708,46 88.5,47.792 88.5,50C88.5,52.208 86.708,54 84.5,54C75.808,54 69.825,53.425 65.747,52.71C65.913,51.832 66,50.926 66,50C66,49.074 65.913,48.168 65.747,47.29ZM37.253,52.71C33.175,53.425 27.192,54 18.5,54C16.292,54 14.5,52.208 14.5,50C14.5,47.792 16.292,46 18.5,46C27.192,46 33.175,46.575 37.253,47.29C37.087,48.168 37,49.074 37,50C37,50.926 37.087,51.832 37.253,52.71ZM64.848,44.331C66.806,43.212 70.005,41.744 75.196,40.057C76.316,39.693 77.52,40.307 77.884,41.427C78.248,42.547 77.634,43.752 76.514,44.116C71.324,45.802 67.872,46.495 65.631,46.74C65.44,45.908 65.177,45.102 64.848,44.331ZM37.369,46.74C35.128,46.495 31.676,45.802 26.486,44.116C25.366,43.752 24.752,42.547 25.116,41.427C25.48,40.307 26.684,39.693 27.804,40.057C32.995,41.744 36.194,43.212 38.152,44.331C37.824,45.102 37.56,45.908 37.369,46.74ZM62.44,40.487C63.955,38.818 66.545,36.432 70.963,33.222C71.916,32.529 73.252,32.741 73.944,33.694C74.636,34.646 74.424,35.982 73.472,36.674C69.055,39.883 65.986,41.608 63.93,42.534C63.493,41.808 62.994,41.124 62.44,40.487ZM39.07,42.534C37.014,41.608 33.945,39.883 29.528,36.674C28.576,35.982 28.364,34.646 29.056,33.694C29.748,32.741 31.084,32.529 32.037,33.222C36.455,36.432 39.045,38.818 40.56,40.487C40.006,41.123 39.507,41.808 39.07,42.534ZM58.966,37.57C59.892,35.514 61.617,32.445 64.826,28.028C65.518,27.076 66.854,26.864 67.806,27.556C68.759,28.248 68.971,29.584 68.278,30.537C65.068,34.955 62.682,37.545 61.013,39.06C60.377,38.506 59.692,38.007 58.966,37.57ZM41.987,39.06C40.318,37.545 37.932,34.955 34.722,30.537C34.029,29.584 34.241,28.248 35.194,27.556C36.146,26.864 37.482,27.076 38.174,28.028C41.383,32.445 43.108,35.514 44.034,37.57C43.308,38.007 42.624,38.506 41.987,39.06ZM54.76,35.869C55.005,33.628 55.698,30.176 57.384,24.986C57.748,23.866 58.953,23.252 60.073,23.616C61.193,23.98 61.807,25.184 61.443,26.304C59.756,31.495 58.288,34.694 57.169,36.652C56.398,36.324 55.592,36.06 54.76,35.869ZM45.831,36.652C44.712,34.694 43.244,31.495 41.557,26.304C41.193,25.184 41.807,23.98 42.927,23.616C44.047,23.252 45.252,23.866 45.616,24.986C47.302,30.176 47.995,33.628 48.24,35.869C47.408,36.06 46.602,36.323 45.831,36.652ZM48.79,35.753C48.075,31.675 47.5,25.692 47.5,17C47.5,14.792 49.292,13 51.5,13C53.708,13 55.5,14.792 55.5,17C55.5,25.692 54.925,31.675 54.21,35.753C53.332,35.587 52.426,35.5 51.5,35.5C50.574,35.5 49.668,35.587 48.79,35.753Z" style="fill:rgb(197,199,196);"/>
                    </g>
                </g>
            </g>
        </g>
    </g>
</svg>
