<?xml version="1.0" encoding="UTF-8" standalone="no"?>
<!DOCTYPE svg PUBLIC "-//W3C//DTD SVG 1.1//EN" "http://www.w3.org/Graphics/SVG/1.1/DTD/svg11.dtd">
<svg width="100%" height="100%" viewBox="0 0 90 51" version="1.1" xmlns="http://www.w3.org/2000/svg" xmlns:xlink="http://www.w3.org/1999/xlink" xml:space="preserve" xmlns:serif="http://www.serif.com/" style="fill-rule:evenodd;clip-rule:evenodd;stroke-linejoin:round;stroke-miterlimit:2;">
    <g transform="matrix(1,0,0,1,-200,-104)">
        <g id="OLM" transform="matrix(1,0,0,1.34211,200,104)">
            <rect x="0" y="0" width="90" height="38" style="fill:none;"/>
            <g transform="matrix(1,0,0,0.745098,-30,-49.1765)">
                <g transform="matrix(1.125,0,0,1.7,-7.125,-27.5)">
                    <path d="M113,59.706C113,57.109 109.814,55 105.889,55L40.111,55C36.186,55 33,57.109 33,59.706L33,80.294C33,82.891 36.186,85 40.111,85L105.889,85C109.814,85 113,82.891 113,80.294L113,59.706Z" style="fill:rgb(25,30,40);"/>
                </g>
                <g transform="matrix(0.975,0,0,1.3,3.825,0.5)">
                    <path d="M113,57.308C113,56.034 111.621,55 109.923,55L36.077,55C34.379,55 33,56.034 33,57.308L33,82.692C33,83.966 34.379,85 36.077,85L109.923,85C111.621,85 113,83.966 113,82.692L113,57.308ZM110.949,57.308L110.949,82.692C110.949,83.117 110.489,83.462 109.923,83.462C109.923,83.462 36.077,83.462 36.077,83.462C35.511,83.462 35.051,83.117 35.051,82.692L35.051,57.308C35.051,56.883 35.511,56.538 36.077,56.538L109.923,56.538C110.489,56.538 110.949,56.883 110.949,57.308Z" style="fill:rgb(167,41,32);"/>
                </g>
                <g transform="matrix(1,0,0,1,-170,-38)">
                    <path d="M215,149L215,147L211,147L211,149L215,149ZM223,149L223,147L219,147L219,149L223,149ZM231,149L231,147L227,147L227,149L231,149ZM239,149L239,147L235,147L235,149L239,149ZM247,149L247,147L243,147L243,149L247,149ZM255,149L255,147L251,147L251,149L255,149ZM263,149L263,147L259,147L259,149L263,149ZM271,149L271,147L267,147L267,149L271,149ZM279,149L279,147L275,147L275,149L279,149ZM284,146L282,146L282,148.829C283.165,148.417 284,147.305 284,146ZM208,148.829C206.835,148.417 206,147.305 206,146L206,146L208,146L208,148.829ZM284,138L282,138L282,142L284,142L284,138ZM206,138L206,142L208,142L208,138L206,138ZM284,130L282,130L282,134L284,134L284,130ZM206,130L206,134L208,134L208,130L206,130ZM284,122L282,122L282,126L284,126L284,122ZM206,122L206,126L208,126L208,122L206,122ZM284,114L282,114L282,118L284,118L284,114ZM206,114L206,118L208,118L208,114L206,114ZM281,110L278,110L278,112L282,112L282,110.171C281.687,110.06 281.351,110 281,110ZM274,110L270,110L270,112L274,112L274,110ZM266,110L262,110L262,112L266,112L266,110ZM258,110L254,110L254,112L258,112L258,110ZM250,110L246,110L246,112L250,112L250,110ZM242,110L238,110L238,112L242,112L242,110ZM218,110L214,110L214,112L218,112L218,110ZM234,110L230,110L230,112L234,112L234,110ZM226,110L222,110L222,112L226,112L226,110ZM210,112L210,110L209,110C207.695,110 206.583,110.835 206.171,112L210,112Z" style="fill:rgb(197,199,196);"/>
                </g>
                <g transform="matrix(1.63286e-16,2.66667,-20,1.22465e-15,1145,-217.667)">
                    <rect x="112" y="52" width="3" height="3" style="fill:rgb(167,41,32);"/>
                </g>
                <g transform="matrix(1.63286e-16,2.66667,-20,1.22465e-15,1145,-204.667)">
                    <rect x="112" y="52" width="3" height="3" style="fill:rgb(167,41,32);"/>
                </g>
            </g>
        </g>
    </g>
</svg>
