<?xml version="1.0" encoding="UTF-8" standalone="no"?>
<!DOCTYPE svg PUBLIC "-//W3C//DTD SVG 1.1//EN" "http://www.w3.org/Graphics/SVG/1.1/DTD/svg11.dtd">
<svg width="100%" height="100%" viewBox="0 0 90 38" version="1.1" xmlns="http://www.w3.org/2000/svg" xmlns:xlink="http://www.w3.org/1999/xlink" xml:space="preserve" xmlns:serif="http://www.serif.com/" style="fill-rule:evenodd;clip-rule:evenodd;stroke-linejoin:round;stroke-miterlimit:2;">
    <g transform="matrix(1,0,0,1,-590,0)">
        <g id="stv.-Wehrleiter-a.-D." serif:id="stv. Wehrleiter a. D." transform="matrix(1,0,0,1,590,0)">
            <rect x="0" y="0" width="90" height="38" style="fill:none;"/>
            <g transform="matrix(1,0,0,1,-30,-66)">
                <g transform="matrix(1.125,0,0,1.26667,-7.125,-3.66667)">
                    <path d="M113,61.316C113,57.83 109.814,55 105.889,55L40.111,55C36.186,55 33,57.83 33,61.316L33,78.684C33,82.17 36.186,85 40.111,85L105.889,85C109.814,85 113,82.17 113,78.684L113,61.316Z" style="fill:rgb(25,30,40);"/>
                </g>
                <g transform="matrix(0.975,0,0,0.866667,3.825,24.3333)">
                    <path d="M113,58.462C113,56.551 111.621,55 109.923,55L36.077,55C34.379,55 33,56.551 33,58.462L33,81.538C33,83.449 34.379,85 36.077,85L109.923,85C111.621,85 113,83.449 113,81.538L113,58.462ZM110.949,58.462L110.949,81.538C110.949,82.175 110.489,82.692 109.923,82.692L36.077,82.692C35.511,82.692 35.051,82.175 35.051,81.538L35.051,58.462C35.051,57.825 35.511,57.308 36.077,57.308L109.923,57.308C110.489,57.308 110.949,57.825 110.949,58.462Z" style="fill:rgb(197,199,196);"/>
                </g>
                <g transform="matrix(1.63286e-16,2.66667,-20,1.22465e-15,1145,-217.667)">
                    <rect x="112" y="52" width="3" height="3" style="fill:rgb(197,199,196);"/>
                </g>
            </g>
        </g>
    </g>
</svg>
