<?xml version="1.0" encoding="UTF-8" standalone="no"?>
<!DOCTYPE svg PUBLIC "-//W3C//DTD SVG 1.1//EN" "http://www.w3.org/Graphics/SVG/1.1/DTD/svg11.dtd">
<svg width="100%" height="100%" viewBox="0 0 90 51" version="1.1" xmlns="http://www.w3.org/2000/svg" xmlns:xlink="http://www.w3.org/1999/xlink" xml:space="preserve" xmlns:serif="http://www.serif.com/" style="fill-rule:evenodd;clip-rule:evenodd;stroke-linejoin:round;stroke-miterlimit:2;">
    <g transform="matrix(1,0,0,1,-690,0)">
        <g id="Wehrleiter-a.-D." serif:id="Wehrleiter a. D." transform="matrix(1,0,0,1.34211,690,0)">
            <rect x="0" y="0" width="90" height="38" style="fill:none;"/>
            <g transform="matrix(1,0,0,0.745098,-30,-49.1765)">
                <g transform="matrix(1.125,0,0,1.7,-7.125,-27.5)">
                    <path d="M113,59.706C113,57.109 109.814,55 105.889,55L40.111,55C36.186,55 33,57.109 33,59.706L33,80.294C33,82.891 36.186,85 40.111,85L105.889,85C109.814,85 113,82.891 113,80.294L113,59.706Z" style="fill:rgb(25,30,40);"/>
                </g>
                <g transform="matrix(0.975,0,0,1.3,3.825,0.5)">
                    <path d="M113,57.308C113,56.034 111.621,55 109.923,55L36.077,55C34.379,55 33,56.034 33,57.308L33,82.692C33,83.966 34.379,85 36.077,85L109.923,85C111.621,85 113,83.966 113,82.692L113,57.308ZM110.949,57.308L110.949,82.692C110.949,83.117 110.489,83.462 109.923,83.462C109.923,83.462 36.077,83.462 36.077,83.462C35.511,83.462 35.051,83.117 35.051,82.692L35.051,57.308C35.051,56.883 35.511,56.538 36.077,56.538L109.923,56.538C110.489,56.538 110.949,56.883 110.949,57.308Z" style="fill:rgb(197,199,196);"/>
                </g>
                <g transform="matrix(1.63286e-16,2.66667,-20,1.22465e-15,1145,-217.667)">
                    <rect x="112" y="52" width="3" height="3" style="fill:rgb(197,199,196);"/>
                </g>
                <g transform="matrix(1.63286e-16,2.66667,-20,1.22465e-15,1145,-204.667)">
                    <rect x="112" y="52" width="3" height="3" style="fill:rgb(197,199,196);"/>
                </g>
            </g>
        </g>
    </g>
</svg>
