<?xml version="1.0" encoding="UTF-8" standalone="no"?>
<!DOCTYPE svg PUBLIC "-//W3C//DTD SVG 1.1//EN" "http://www.w3.org/Graphics/SVG/1.1/DTD/svg11.dtd">
<svg width="100%" height="100%" viewBox="0 0 90 64" version="1.1" xmlns="http://www.w3.org/2000/svg" xmlns:xlink="http://www.w3.org/1999/xlink" xml:space="preserve" xmlns:serif="http://www.serif.com/" style="fill-rule:evenodd;clip-rule:evenodd;stroke-linejoin:round;stroke-miterlimit:2;">
    <g transform="matrix(1,0,0,1,-7.10543e-15,-84)">
        <g id="Feuerwehrarzt-" serif:id="Feuerwehrarzt " transform="matrix(1,0,0,1,-30,-107)">
            <rect x="30" y="191" width="90" height="64" style="fill:none;"/>
            <g transform="matrix(1,0,0,1,3.4639e-13,125)">
                <g transform="matrix(1.125,0,0,2.13333,-7.125,-51.3333)">
                    <path d="M113,58.75C113,56.68 109.814,55 105.889,55L40.111,55C36.186,55 33,56.68 33,58.75L33,81.25C33,83.32 36.186,85 40.111,85L105.889,85C109.814,85 113,83.32 113,81.25L113,58.75Z" style="fill:rgb(25,30,40);"/>
                </g>
                <g transform="matrix(0.421462,0,0,0.421462,54.211,76.9969)">
                    <path d="M48.51,90.049C49.477,90.218 50.472,90.313 51.451,90.338C51.31,91.388 50.898,94.268 50.39,96.141C50.268,96.593 50.142,96.983 50.011,97.267L50,97.288L49.989,97.267C49.858,96.983 49.732,96.593 49.61,96.141C49.043,94.048 48.595,90.7 48.51,90.049ZM47.504,75.175C46.036,75.624 44.659,76.147 43.653,76.921C42.13,78.092 41.14,79.672 41.167,82C41.262,84.732 42.787,86.969 45.493,88.145C47.375,88.963 49.723,89.339 51.94,89.345C55.252,89.355 58,88.749 58,88.749C58.413,88.749 58.749,88.413 58.749,88C58.749,87.587 58.413,87.251 58,87.251C58,87.251 54.006,86.361 50.419,84.789C49.54,84.403 48.747,83.93 48.017,83.46C47.397,83.06 46.809,82.684 46.833,82C46.837,81.655 47.092,81.501 47.352,81.356C47.402,81.328 47.453,81.302 47.506,81.275L47.504,75.175ZM48.5,71.693L48.5,75.084C48.503,75.114 48.504,75.144 48.504,75.174L48.506,81.275C48.506,81.311 48.504,81.346 48.5,81.38L48.5,82.582L48.559,82.619C49.247,83.062 49.992,83.51 50.82,83.873C51.046,83.971 51.272,84.067 51.5,84.161L51.5,72.895C51.077,72.647 50.585,72.455 50.074,72.264C49.558,72.072 49.029,71.884 48.5,71.693ZM47.5,56.605C46.19,56.864 44.984,57.218 44.052,57.763C42.199,58.845 41.031,60.472 41.029,63C41.03,65.282 41.969,66.923 43.475,68.182C45.189,69.615 47.955,70.408 50.423,71.327C51.083,71.573 51.712,71.83 52.231,72.171C52.538,72.373 52.826,72.59 52.827,73C52.828,73.26 52.683,73.412 52.5,73.533L52.5,79.78C53.895,79.357 55.195,78.856 56.164,78.132C57.726,76.966 58.718,75.362 58.728,73C58.735,70.723 57.796,69.086 56.297,67.825C54.587,66.388 51.821,65.594 49.355,64.67C48.697,64.423 48.069,64.164 47.551,63.822C47.249,63.623 46.971,63.404 46.971,63C46.971,62.727 47.24,62.719 47.501,62.669L47.5,56.605ZM48.5,55.664L48.501,62.669L48.5,63.22C48.87,63.413 49.282,63.574 49.706,63.733C50.294,63.954 50.898,64.168 51.5,64.387L51.5,56.38C50.544,56.124 49.52,55.896 48.5,55.664ZM47.5,42.04C46.132,42.242 44.849,42.506 43.837,42.921C41.423,43.912 40.09,45.6 40.085,48C40.08,50.324 41.38,52.06 43.742,53.207C45.954,54.28 49.459,54.752 52.232,55.545C52.544,55.634 52.903,55.777 53.228,55.919C52.994,55.934 52.745,55.946 52.5,55.957L52.5,61.847C53.825,61.673 55.083,61.469 56.078,61.105C58.545,60.202 59.957,58.578 59.952,56C59.947,53.664 58.647,51.915 56.267,50.773C54.05,49.709 50.542,49.25 47.764,48.468C47.459,48.382 47.109,48.246 46.789,48.11C47.017,48.038 47.262,47.968 47.5,47.91L47.5,42.04ZM48.5,39.021L48.5,47.631C49.456,47.884 50.481,48.107 51.5,48.335L51.5,41.265C51.285,41.096 51.061,40.924 50.83,40.749C50.097,40.195 49.31,39.617 48.5,39.021ZM52.5,41.426L52.5,47.26C53.084,47.19 53.647,47.113 54.173,47.02C55.662,46.755 56.914,46.331 57.771,45.771C59.169,44.856 59.889,43.604 59.887,42C59.886,40.807 59.288,39.343 57.884,37.891C55.633,35.563 50.715,32.66 47.284,29.495C46.33,28.615 45.514,27.717 44.998,26.799C44.692,26.255 44.49,25.718 44.73,25.17C45.362,23.718 46.247,23.087 47.333,22.985C47.547,22.965 47.765,22.974 47.986,22.964C50.798,22.831 54.023,23.493 56.674,23.632C57.574,23.812 58.452,23.227 58.632,22.326C58.812,21.426 58.227,20.548 57.326,20.368C55.241,19.62 52.941,18.325 50.591,17.515C49.857,17.262 49.14,17.068 48.407,16.976C47.85,16.906 47.294,16.949 46.756,17C43.724,17.284 40.99,18.757 39.27,22.83C38.222,25.333 38.655,27.847 40.259,30.277C42.551,33.749 47.714,37.139 51.433,39.951C52.056,40.422 52.628,40.875 53.116,41.31C52.908,41.355 52.698,41.395 52.5,41.426ZM48.701,23.946C49.611,23.941 50.554,24.008 51.5,24.101L51.5,28C51.5,28.215 51.638,28.406 51.842,28.474C52.046,28.542 52.271,28.472 52.4,28.3C52.4,28.3 53.84,26.378 55.041,25.225C55.281,24.994 55.51,24.795 55.715,24.655C55.832,24.575 55.921,24.5 56,24.5C56.075,24.5 56.126,24.546 56.169,24.601C56.231,24.679 56.277,24.777 56.316,24.88C56.503,25.377 56.5,26 56.5,26C56.5,26.161 56.577,26.312 56.708,26.406C56.838,26.5 57.006,26.525 57.158,26.474C57.158,26.474 58.173,26.134 58.986,26.066C59.093,26.057 59.224,26.064 59.334,26.074C59.278,26.125 59.215,26.178 59.154,26.223C58.648,26.597 57.833,27.065 56.929,27.602C55.512,28.443 53.886,29.448 52.81,30.512C52.364,30.952 52.013,31.408 51.787,31.868C51.01,31.288 50.237,30.694 49.498,30.089C49.499,30.057 49.5,30.028 49.5,30C49.5,29.288 48.993,26.547 48.701,23.946ZM49.32,16.118C49.427,15.506 49.5,14.827 49.5,14C49.5,12.775 49.497,11.183 49.277,9.884C49.112,8.915 48.811,8.104 48.354,7.646C48.023,7.316 48.03,6.986 48.117,6.741C48.569,7.074 49.287,7.5 50,7.5C50.729,7.5 51.367,6.976 51.888,6.164C52.512,5.19 53.001,3.8 53.504,2.93C53.597,2.77 53.689,2.629 53.785,2.52C53.825,2.474 53.865,2.434 53.907,2.404C53.92,2.395 53.929,2.38 53.944,2.38C53.993,2.38 54.026,2.432 54.081,2.488C54.225,2.637 54.373,2.869 54.537,3.193C54.536,3.231 54.532,3.376 54.512,3.491C54.447,3.879 54.285,4.424 54.074,5.076C53.2,7.765 51.5,12.157 51.5,15L51.5,16.78C51.306,16.707 51.111,16.637 50.917,16.569C50.38,16.384 49.851,16.23 49.32,16.118Z" style="fill:rgb(197,199,196);"/>
                </g>
                <g transform="matrix(0.975,0,0,1.73333,3.825,-23.3333)">
                    <path d="M113,56.731C113,55.776 111.621,55 109.923,55L36.077,55C34.379,55 33,55.776 33,56.731L33,83.269C33,84.224 34.379,85 36.077,85L109.923,85C111.621,85 113,84.224 113,83.269L113,56.731ZM110.949,56.731L110.949,83.269C110.949,83.588 110.489,83.846 109.923,83.846C109.923,83.846 36.077,83.846 36.077,83.846C35.511,83.846 35.051,83.588 35.051,83.269C35.051,83.269 35.051,56.731 35.051,56.731C35.051,56.412 35.511,56.154 36.077,56.154L109.923,56.154C110.489,56.154 110.949,56.412 110.949,56.731Z" style="fill:rgb(197,199,196);"/>
                </g>
            </g>
        </g>
    </g>
</svg>
