<?xml version="1.0" encoding="UTF-8" standalone="no"?>
<!DOCTYPE svg PUBLIC "-//W3C//DTD SVG 1.1//EN" "http://www.w3.org/Graphics/SVG/1.1/DTD/svg11.dtd">
<svg width="100%" height="100%" viewBox="0 0 90 64" version="1.1" xmlns="http://www.w3.org/2000/svg" xmlns:xlink="http://www.w3.org/1999/xlink" xml:space="preserve" xmlns:serif="http://www.serif.com/" style="fill-rule:evenodd;clip-rule:evenodd;">
    <g transform="matrix(1,0,0,1,-220,-168)">
        <g id="Kreisjugendfeuerwehrwart" transform="matrix(1,0,0,1,190,-23)">
            <rect x="30" y="191" width="90" height="64" style="fill:none;"/>
            <clipPath id="_clip1">
                <rect x="30" y="191" width="90" height="64"/>
            </clipPath>
            <g clip-path="url(#_clip1)">
                <g transform="matrix(1,0,0,1,3.4639e-13,125)">
                    <g transform="matrix(1.125,0,0,2.13333,-7.125,-51.3333)">
                        <path d="M113,58.75C113,56.68 109.814,55 105.889,55L40.111,55C36.186,55 33,56.68 33,58.75L33,81.25C33,83.32 36.186,85 40.111,85L105.889,85C109.814,85 113,83.32 113,81.25L113,58.75Z" style="fill:rgb(25,30,40);"/>
                    </g>
                    <g transform="matrix(0.0866189,0,0,0.0866189,66.3278,77.0714)">
                        <path d="M37.71,323.292C23.151,339.153 14.25,360.287 14.25,383.457C14.25,432.564 54.204,472.513 103.312,472.513C152.411,472.513 192.365,432.565 192.365,383.457C192.365,340.158 161.287,303.966 120.259,296.025L110.862,324.214C140.242,327.931 163.033,353.092 163.033,383.456C163.033,416.393 136.241,443.19 103.313,443.19C70.376,443.19 43.578,416.392 43.578,383.456C43.578,368.467 49.135,354.742 58.302,344.241" style="fill:rgb(255,221,0);fill-rule:nonzero;"/>
                        <path d="M37.71,323.292C23.151,339.153 14.25,360.287 14.25,383.457C14.25,432.564 54.204,472.513 103.312,472.513C152.411,472.513 192.365,432.565 192.365,383.457C192.365,340.158 161.287,303.966 120.259,296.025L110.862,324.214C140.242,327.931 163.033,353.092 163.033,383.456C163.033,416.393 136.241,443.19 103.313,443.19C70.376,443.19 43.578,416.392 43.578,383.456C43.578,368.467 49.135,354.742 58.302,344.241" style="fill:none;fill-rule:nonzero;stroke:black;stroke-width:3px;"/>
                        <path d="M27.708,350.539L25.875,355.994C24.143,361.109 24.826,365.521 30.439,367.418C36.23,369.372 39.1,366.273 40.857,361.059L42.703,355.603L27.708,350.539M38.393,358.6L37.868,360.149C36.889,363.069 34.752,364.283 31.755,363.272C28.771,362.266 27.797,360.066 28.809,357.083L29.328,355.54L38.393,358.6Z" style="fill-rule:nonzero;"/>
                        <path d="M37.899,370.889L36.673,381.965L33.695,381.636L34.46,374.739L31.211,374.385L30.497,380.896L27.519,380.574L28.24,374.05L24.681,373.658L23.884,380.802L20.913,380.473L22.171,369.138L37.899,370.889" style="fill-rule:nonzero;"/>
                        <path d="M28.063,398.01C23.746,398.421 21.539,395.804 21.147,391.7C20.768,387.591 22.443,384.6 26.748,384.196L36.522,383.279L36.926,387.47L27.848,388.324C25.768,388.526 24.068,389.26 24.27,391.403C24.472,393.546 26.28,393.944 28.36,393.742L37.432,392.888L37.83,397.092L28.063,398.01" style="fill-rule:nonzero;"/>
                        <path d="M36.06,401.821L34.941,398.086L37.938,397.188L41.389,408.7L38.393,409.598L37.273,405.861L25.117,409.509L23.896,405.47L36.06,401.821" style="fill-rule:nonzero;"/>
                        <path d="M31.009,414.579C30.984,415.811 31.268,417.373 32.058,418.934C32.671,420.129 33.487,421.128 34.619,420.553C37.243,419.219 32.185,413.39 37.312,410.779C40.713,409.048 43.324,411.885 44.778,414.712C45.461,416.065 45.935,417.5 46.106,418.619L43.065,419.851C43.014,418.663 42.667,417.467 42.117,416.393C41.63,415.445 40.751,413.914 39.513,414.535C37.237,415.704 42.168,421.59 37.079,424.188C33.432,426.046 30.865,423.486 29.271,420.35C28.601,419.036 27.969,417.303 27.741,415.843L31.009,414.579" style="fill-rule:nonzero;"/>
                        <path d="M43.406,440.113C42.426,439.367 41.332,438.513 39.992,436.832C37.375,433.519 36.034,428.38 40.738,424.662C45.056,421.249 49.601,422.576 52.832,426.666C53.825,427.931 54.514,429.392 55.095,430.864L52.194,432.717C51.941,431.187 51.41,429.929 50.519,428.784C48.66,426.438 45.74,426.256 43.432,428.083C40.992,430.011 40.871,432.899 42.781,435.321C43.654,436.408 44.804,437.281 45.879,437.906L43.406,440.113" style="fill-rule:nonzero;"/>
                        <path d="M55.885,430.839L59.141,433.52L55.285,438.191L59.135,441.371L62.984,436.699L66.234,439.386L56.169,451.594L52.92,448.907L57.232,443.666L53.382,440.499L49.07,445.733L45.814,443.047L55.885,430.839" style="fill-rule:nonzero;"/>
                        <path d="M67.467,440.063L77.348,445.266L75.944,447.908L69.806,444.671L68.282,447.561L74.073,450.62L72.682,453.269L66.892,450.209L65.223,453.383L71.576,456.733L70.185,459.382L60.096,454.065L67.467,440.063" style="fill-rule:nonzero;"/>
                        <path d="M80.863,459.338C81.305,459.704 81.925,459.983 82.627,460.148C83.841,460.432 84.922,459.775 85.51,457.258L87.565,448.395L91.68,449.356L89.328,459.452C88.563,462.759 86.679,464.724 82.513,463.758C81.603,463.543 80.73,463.081 80.067,462.746L80.863,459.338" style="fill-rule:nonzero;"/>
                        <path d="M106.485,460.337C106.276,464.654 103.368,466.469 99.246,466.273C95.124,466.078 92.406,463.985 92.621,459.668L93.101,449.85L97.311,450.065L96.869,459.169C96.768,461.255 97.242,463.044 99.398,463.151C101.554,463.253 102.205,461.514 102.306,459.434L102.748,450.325L106.952,450.527L106.485,460.337" style="fill-rule:nonzero;"/>
                        <path d="M125.296,462.992C122.786,464.142 120.833,464.541 119.404,464.806C115.257,465.571 110.082,464.35 109.008,458.458C107.927,452.592 111.644,449.582 117.35,448.546C118.373,448.35 120.561,448.071 122.179,448.375L122.464,451.82C121.028,451.301 119.474,451.333 118.487,451.516C115.124,452.129 112.614,454.045 113.284,457.667C113.841,460.733 116.344,462.181 119.372,461.624C119.935,461.529 120.453,461.34 120.801,461.094L120.238,458.021L117.81,458.458L117.267,455.519L123.708,454.331L125.296,462.992" style="fill-rule:nonzero;"/>
                        <path d="M123.785,447.308L134.083,443.002L135.228,445.759L128.823,448.438L130.088,451.448L136.138,448.926L137.295,451.676L131.251,454.217L132.623,457.518L139.261,454.742L140.411,457.505L129.898,461.904L123.785,447.308" style="fill-rule:nonzero;"/>
                        <path d="M135.392,442.483L139.785,439.405L150.33,445.139L150.368,445.113L144.147,436.339L147.309,434.139L156.387,447.093L152.101,450.102L141.366,444.412L141.321,444.443L147.631,453.225L144.451,455.443L135.392,442.483" style="fill-rule:nonzero;"/>
                        <path d="M160.224,443.666L164.03,439.336C167.596,435.296 168.671,430.946 164.233,427.046C159.636,423 155.787,424.757 152.152,428.899L148.346,433.216L160.224,443.666M153.485,432.116L154.559,430.883C156.595,428.582 159.035,428.273 161.399,430.353C163.77,432.439 163.814,434.847 161.741,437.218L160.66,438.438L153.485,432.116Z" style="fill-rule:nonzero;"/>
                        <path d="M158.662,420.907L163.891,411.703L166.495,413.176L163.347,418.72L166.369,420.439L169.378,415.136L171.977,416.608L168.967,421.912L174.499,425.073L172.419,428.728L158.662,420.907" style="fill-rule:nonzero;"/>
                        <path d="M164.2,411.026L167.873,400.487L170.699,401.48L168.404,408.029L171.496,409.11L173.664,402.922L176.483,403.908L174.321,410.097L177.697,411.272L180.068,404.489L182.9,405.482L179.133,416.248L164.2,411.026" style="fill-rule:nonzero;"/>
                        <path d="M62.757,358.239C62.757,358.239 -5.582,323.234 10.254,242.397C10.254,242.397 21.09,294.072 33.588,285.733C46.093,277.401 36.091,252.398 21.09,206.565C6.088,160.725 -9.286,136.355 79.422,64.892C109.425,40.73 115.257,10.72 115.257,10.72C115.257,10.72 131.453,64.222 86.091,117.388C77.152,127.87 89.423,143.232 101.093,125.733C101.093,125.733 115.257,106.566 118.588,86.563C118.588,86.563 132.756,113.229 101.093,189.9C88.386,220.65 113.317,221.566 128.128,202.607C128.735,201.823 161.33,160.301 156.09,94.889C156.09,94.889 196.094,164.056 148.181,244.148C103.35,319.106 127.755,318.234 127.755,318.234L62.757,358.239Z" style="fill:rgb(226,0,26);fill-rule:nonzero;"/>
                        <path d="M62.757,358.239C62.757,358.239 -5.582,323.234 10.254,242.397C10.254,242.397 21.09,294.072 33.588,285.733C46.093,277.401 36.091,252.398 21.09,206.565C6.088,160.725 -9.286,136.355 79.422,64.892C109.425,40.73 115.257,10.72 115.257,10.72C115.257,10.72 131.453,64.222 86.091,117.388C77.152,127.87 89.423,143.232 101.093,125.733C101.093,125.733 115.257,106.566 118.588,86.563C118.588,86.563 132.756,113.229 101.093,189.9C88.386,220.65 113.317,221.566 128.128,202.607C128.735,201.823 161.33,160.301 156.09,94.889C156.09,94.889 196.094,164.056 148.181,244.148C103.35,319.106 127.755,318.234 127.755,318.234L62.757,358.239Z" style="fill:none;fill-rule:nonzero;stroke:black;stroke-width:3px;stroke-miterlimit:7;"/>
                        <path d="M87.962,228.274L94.682,228.173C124.013,228.173 147.505,250.919 147.638,281.416L147.638,406.311L51.087,406.33L51.087,310.39L33.613,310.39L33.626,305.238C39.284,298.467 43.216,293.562 48.647,285.875C48.856,270.81 54.204,259.342 63.775,251.604C71.418,245.668 80.041,242.975 87.963,242.236L87.963,228.274L87.962,228.274Z" style="fill:rgb(255,221,0);fill-rule:nonzero;"/>
                        <path d="M87.962,228.274L94.682,228.173C124.013,228.173 147.505,250.919 147.638,281.416L147.638,406.311L51.087,406.33L51.087,310.39L33.613,310.39L33.626,305.238C39.284,298.467 43.216,293.562 48.647,285.875C48.856,270.81 54.204,259.342 63.775,251.604C71.418,245.668 80.041,242.975 87.963,242.236L87.963,228.274L87.962,228.274Z" style="fill:none;fill-rule:nonzero;stroke:black;stroke-width:3px;"/>
                        <path d="M88.184,293.086L88.101,401.133L56.435,401.31L56.46,308.499C65.336,308.359 68.37,300.861 74.243,293.225L88.184,293.086" style="fill:rgb(226,0,26);fill-rule:nonzero;"/>
                        <path d="M125.858,283.749C125.858,263.999 109.759,247.929 90.016,247.929C70.261,247.929 54.266,263.949 54.266,283.699C54.266,283.699 53.975,286.032 54.165,287.725L40.832,305.123L56.264,305.148C57.819,305.148 59.267,304.591 59.728,304.433C63.919,302.986 68.414,295.93 72.511,289.533L91.761,289.533L91.811,401.133L125.857,401.133L125.857,283.749" style="fill:rgb(0,75,154);fill-rule:nonzero;"/>
                        <path d="M91.528,277.022C88.828,277.022 86.641,279.203 86.641,281.909C86.641,284.601 88.828,286.789 91.528,286.789C94.227,286.789 96.408,284.601 96.408,281.909C96.408,279.203 94.227,277.022 91.528,277.022" style="fill:rgb(255,221,0);fill-rule:nonzero;"/>
                        <rect x="58.97" y="277.458" width="2.662" height="9.167" style="fill:rgb(255,221,0);"/>
                        <rect x="65.709" y="277.458" width="2.661" height="9.167" style="fill:rgb(255,221,0);"/>
                        <rect x="72.442" y="277.458" width="2.662" height="9.167" style="fill:rgb(255,221,0);"/>
                        <rect x="79.181" y="277.458" width="2.662" height="9.167" style="fill:rgb(255,221,0);"/>
                        <path d="M67.258,332.016L69.679,332.016C74.345,332.016 76.968,329.329 76.968,324.139C76.968,318.949 74.25,316.262 69.679,316.262L67.258,316.262L67.258,332.016M61.012,311.109L69.553,311.109C77.715,311.109 83.424,313.954 83.424,324.025C83.424,333.766 77.545,337.168 69.553,337.168L61.012,337.168L61.012,311.109Z" style="fill:rgb(255,221,0);fill-rule:nonzero;"/>
                        <path d="M65.551,341.669L82.98,341.669L82.98,346.601L72.499,346.601L72.499,352.309L82.538,352.309L82.538,357.233L72.499,357.233L72.499,367.728L65.551,367.728L65.551,341.669" style="fill:rgb(255,221,0);fill-rule:nonzero;"/>
                        <path d="M59.35,372.109L66.733,372.109L72.524,392.566L72.594,392.566L78.422,372.109L85.547,372.109L76.665,398.168L68.074,398.168L59.35,372.109" style="fill:rgb(255,221,0);fill-rule:nonzero;"/>
                        <path d="M192.364,383.457C192.364,340.158 161.286,303.966 120.258,296.025L110.861,324.214C140.241,327.931 163.032,353.092 163.032,383.456" style="fill:rgb(255,221,0);fill-rule:nonzero;"/>
                        <path d="M192.364,383.457C192.364,340.158 161.286,303.966 120.258,296.025L110.861,324.214C140.241,327.931 163.032,353.092 163.032,383.456" style="fill:none;fill-rule:nonzero;stroke:black;stroke-width:3px;"/>
                        <path d="M179.803,386.883C184.102,387.446 185.67,390.481 185.139,394.577C184.608,398.673 182.32,401.202 178.02,400.645L168.285,399.381L168.829,395.202L177.863,396.371C179.936,396.643 181.769,396.308 182.042,394.171C182.32,392.034 180.632,391.244 178.571,390.973L169.524,389.803L170.074,385.618L179.803,386.883" style="fill-rule:nonzero;"/>
                        <path d="M169.966,384.285L169.125,373.158L172.109,372.931L172.634,379.854L175.89,379.606L175.391,373.076L178.374,372.843L178.867,379.379L182.445,379.107L181.901,371.944L184.886,371.717L185.752,383.09L169.966,384.285" style="fill-rule:nonzero;"/>
                        <path d="M184.203,367.627L183.071,363.556L177.04,365.25L176.8,364.396C176.376,362.891 176.895,362.177 179.279,360.622L181.789,358.978L180.601,354.749L176.865,357.392C175.227,358.669 174.095,359.08 174.108,360.484L174.071,360.503C173.059,358.663 171.434,358.082 169.405,358.65C166.788,359.383 166.175,361.925 166.939,364.63L168.962,371.882L184.203,367.627M170.712,367.014L170.408,365.946C169.978,364.397 169.84,362.905 171.256,362.513C172.988,362.026 173.493,363.669 173.86,364.978L174.157,366.046L170.712,367.014Z" style="fill-rule:nonzero;"/>
                        <path d="M166.122,359.446L163.903,355.742L173.304,347.77L173.278,347.732L161.754,352.126L159.01,347.529L168.31,339.394L168.291,339.362L156.791,343.813L154.256,340.848L170.093,335.215L172.874,339.874L163.581,348.022L163.6,348.067L175.112,343.629L177.912,348.326L166.122,359.446" style="fill-rule:nonzero;"/>
                        <path d="M138.604,309.264L134.671,307.753L132.421,313.594L131.599,313.279C130.132,312.716 129.867,311.882 130.044,309.037L130.227,306.04L126.118,304.46L126.011,309.037C126.062,311.123 125.714,312.273 126.852,313.101L126.839,313.146C124.76,312.855 123.324,313.809 122.572,315.776C121.592,318.323 123.28,320.321 125.903,321.339L132.927,324.032L138.604,309.264M130.057,319.727L129.026,319.329C127.528,318.747 126.251,317.964 126.776,316.598C127.415,314.923 129.039,315.498 130.309,315.992L131.346,316.39L130.057,319.727Z" style="fill-rule:nonzero;"/>
                        <path d="M154.256,340.848L146.373,332.958L148.49,330.84L153.384,335.752L155.704,333.444L151.076,328.811L153.194,326.693L157.821,331.333L160.351,328.798L155.274,323.715L157.398,321.598L165.452,329.671L154.256,340.848" style="fill-rule:nonzero;"/>
                        <path d="M145.361,331.978L141.84,329.664L145.165,324.606L140.993,321.863L137.668,326.921L134.146,324.606L142.846,311.381L146.373,313.701L142.643,319.366L146.809,322.109L150.539,316.445L154.066,318.759L145.361,331.978" style="fill-rule:nonzero;"/>
                    </g>
                    <g transform="matrix(0.975,0,0,1.73333,3.825,-23.3333)">
                        <path d="M113,56.731C113,55.776 111.621,55 109.923,55L36.077,55C34.379,55 33,55.776 33,56.731L33,83.269C33,84.224 34.379,85 36.077,85L109.923,85C111.621,85 113,84.224 113,83.269L113,56.731ZM110.949,56.731L110.949,83.269C110.949,83.588 110.489,83.846 109.923,83.846C109.923,83.846 36.077,83.846 36.077,83.846C35.511,83.846 35.051,83.588 35.051,83.269L35.051,56.731C35.051,56.412 35.511,56.154 36.077,56.154L109.923,56.154C110.489,56.154 110.949,56.412 110.949,56.731Z" style="fill:rgb(197,199,196);"/>
                    </g>
                </g>
            </g>
        </g>
    </g>
</svg>
