<?xml version="1.0" encoding="UTF-8" standalone="no"?>
<!DOCTYPE svg PUBLIC "-//W3C//DTD SVG 1.1//EN" "http://www.w3.org/Graphics/SVG/1.1/DTD/svg11.dtd">
<svg width="100%" height="100%" viewBox="0 0 90 64" version="1.1" xmlns="http://www.w3.org/2000/svg" xmlns:xlink="http://www.w3.org/1999/xlink" xml:space="preserve" xmlns:serif="http://www.serif.com/" style="fill-rule:evenodd;clip-rule:evenodd;stroke-linejoin:round;stroke-miterlimit:2;">
    <g transform="matrix(1,0,0,1,-110,0)">
        <g id="Stabführer-" serif:id="Stabführer " transform="matrix(1,0,0,1,80,-191)">
            <rect x="30" y="191" width="90" height="64" style="fill:none;"/>
            <clipPath id="_clip1">
                <rect x="30" y="191" width="90" height="64"/>
            </clipPath>
            <g clip-path="url(#_clip1)">
                <g transform="matrix(1,0,0,1,3.4639e-13,125)">
                    <g transform="matrix(1.125,0,0,2.13333,-7.125,-51.3333)">
                        <path d="M113,58.75C113,56.68 109.814,55 105.889,55L40.111,55C36.186,55 33,56.68 33,58.75L33,81.25C33,83.32 36.186,85 40.111,85L105.889,85C109.814,85 113,83.32 113,81.25L113,58.75Z" style="fill:rgb(25,30,40);"/>
                    </g>
                    <g transform="matrix(0.482509,0,0,0.482509,50.8746,73.8746)">
                        <path d="M31,91.45L31,85.45L37,85.45C41.786,85.45 44.74,82.701 43.23,75.45L39,75.45L39,70.304C36.137,69.661 33.401,68.75 31.052,67.572C26.09,65.082 22.493,60.758 21.609,53.478C21.274,50.441 21.505,47.163 22.256,43.828C22.612,42.249 23.067,40.65 23.646,39.075C25.151,34.982 27.351,31.068 28.938,27.311C29.637,25.656 30.198,24.043 30.627,22.543C31.018,21.178 31.275,19.918 31.3,18.804C31.312,18.247 31.373,17.739 31.041,17.409C30.696,17.075 30.271,16.985 29.929,17.153C29.525,17.351 29.437,17.884 29.452,18.45C29.452,20.907 27.457,22.902 25,22.902C22.543,22.902 20.548,20.907 20.548,18.45C20.666,14.048 23.125,10.793 26.326,9.388C29.644,7.932 33.781,8.216 36.959,11.491C38.962,13.5 39.814,16.394 39.554,19.983L43,19.983L43,16.45L45,16.45L45,19.983L47,19.983L47,16.45L49,16.45L49,19.983L51,19.983L51,16.45L53,16.45L53,19.983L55,19.983L55,16.45L57,16.45L57,19.983L60.446,19.983C60.186,16.394 61.038,13.5 63.041,11.491C66.219,8.216 70.356,7.932 73.674,9.388C76.875,10.793 79.334,14.048 79.452,18.45C79.452,20.907 77.457,22.902 75,22.902C72.543,22.902 70.548,20.907 70.548,18.45C70.563,17.884 70.475,17.351 70.071,17.153C69.729,16.985 69.304,17.075 68.959,17.409C68.627,17.739 68.688,18.247 68.7,18.804C68.725,19.918 68.982,21.178 69.373,22.543C69.802,24.043 70.363,25.656 71.062,27.311C72.649,31.068 74.849,34.982 76.354,39.075C76.933,40.65 77.388,42.249 77.744,43.828C78.495,47.163 78.726,50.441 78.391,53.478C77.507,60.758 73.91,65.082 68.948,67.572C66.599,68.75 63.863,69.661 61,70.304L61,75.45L56.77,75.45C55.26,82.701 58.214,85.45 63,85.45L69,85.45L69,91.45L31,91.45ZM49,24.917L49,61.398C49.336,61.412 49.669,61.424 50,61.436C50.331,61.424 50.664,61.412 51,61.398L51,24.917L49,24.917ZM45,24.917L47,24.917L47,61.295C46.335,61.252 45.667,61.201 45,61.136L45,24.917ZM55,24.917L53,24.917L53,61.295C53.665,61.252 54.333,61.201 55,61.136L55,24.917ZM43,24.917L43,60.899C41.21,60.644 39.463,60.266 37.851,59.694C34.811,58.613 32.488,56.536 32.195,52.453C32.006,50.204 32.485,47.807 33.053,45.321C33.309,44.199 33.57,43.059 33.858,41.911C34.964,37.499 36.171,33.002 37.375,29.03C37.812,27.587 38.258,26.217 38.625,24.917L43,24.917ZM57,24.917L57,60.899C58.79,60.644 60.537,60.266 62.149,59.694C65.189,58.613 67.512,56.536 67.805,52.453C67.994,50.204 67.515,47.807 66.947,45.321C66.691,44.199 66.43,43.059 66.142,41.911C65.036,37.499 63.829,33.002 62.625,29.03C62.188,27.587 61.742,26.217 61.375,24.917L57,24.917Z" style="fill:rgb(167,41,32);"/>
                    </g>
                    <g transform="matrix(0.975,0,0,1.73333,3.825,-23.3333)">
                        <path d="M113,56.731C113,55.776 111.621,55 109.923,55L36.077,55C34.379,55 33,55.776 33,56.731L33,83.269C33,84.224 34.379,85 36.077,85L109.923,85C111.621,85 113,84.224 113,83.269L113,56.731ZM110.949,56.731L110.949,83.269C110.949,83.588 110.489,83.846 109.923,83.846C109.923,83.846 36.077,83.846 36.077,83.846C35.511,83.846 35.051,83.588 35.051,83.269L35.051,56.731C35.051,56.412 35.511,56.154 36.077,56.154C36.077,56.154 109.923,56.154 109.923,56.154C110.489,56.154 110.949,56.412 110.949,56.731Z" style="fill:rgb(197,199,196);"/>
                    </g>
                </g>
            </g>
        </g>
    </g>
</svg>
